<svg id="Capa_1" enable-background="new 0 0 512 512" height="512" viewBox="0 0 512 512" width="512" xmlns="http://www.w3.org/2000/svg"><g><path d="m460.181 60.236c-4.182-2.559-8.767-4.525-13.638-5.778-1.254-4.871-3.219-9.456-5.778-13.638-3.116-5.092-10.413-5.092-13.529 0-2.56 4.182-4.525 8.768-5.779 13.638-4.87 1.254-9.455 3.219-13.638 5.778-5.092 3.116-5.092 10.412 0 13.529 4.182 2.559 8.767 4.525 13.638 5.779 1.254 4.87 3.219 9.456 5.778 13.638 3.116 5.092 10.412 5.092 13.529 0 2.559-4.182 4.524-8.767 5.778-13.638 4.87-1.254 9.456-3.219 13.638-5.779 5.093-3.117 5.093-10.413.001-13.529z" fill="#fce3a0"/><g><path d="m504.5 256c0 107.199-67.879 198.545-163 233.4-26.658 9.768-55.457 15.1-85.5 15.1-137.243 0-248.5-111.257-248.5-248.5s111.257-248.5 248.5-248.5c30.022 0 58.8 5.324 85.443 15.079 95.151 34.839 163.057 126.2 163.057 233.421z" fill="#ffce71"/><path d="m178.5 256c0-107.199 67.821-198.566 162.942-233.421-26.658-9.769-55.398-15.079-85.442-15.079-137.243 0-248.5 111.257-248.5 248.5s111.257 248.5 248.5 248.5c30.044 0 58.842-5.331 85.5-15.1-95.121-34.855-163-126.201-163-233.4z" fill="#ffb357"/></g><g fill="#ff8e9e"><path d="m177.64 266.668c-.063 20.152-20.629 36.424-45.934 36.345-25.306-.08-45.769-16.48-45.706-36.633.063-20.152 20.629-36.425 45.935-36.345 25.305.079 45.768 16.48 45.705 36.633z"/><path d="m334.36 267.159c-.063 20.152 20.4 36.553 45.706 36.632s45.871-16.193 45.934-36.345-20.4-36.553-45.706-36.633c-25.305-.079-45.871 16.193-45.934 36.346z"/></g><path d="m293.03 238.993c.072-22.831-16.461-25.028-36.864-25.092-20.402-.064-36.949 2.029-37.02 24.86-.071 22.83 16.41 41.39 36.813 41.454 20.402.064 36.999-18.392 37.071-41.222z" fill="#4c5659"/><path d="m125.051 420.166c-6.865-4.202-14.393-7.428-22.389-9.486-2.059-7.996-5.285-15.524-9.486-22.39-5.116-8.359-17.095-8.359-22.21 0-4.202 6.866-7.428 14.394-9.487 22.39-7.996 2.058-15.522 5.284-22.389 9.486-8.359 5.116-8.359 17.094 0 22.21 6.865 4.202 14.393 7.428 22.39 9.487 2.059 7.996 5.284 15.523 9.486 22.389 5.115 8.359 17.094 8.359 22.21 0 4.201-6.866 7.427-14.393 9.486-22.389 7.996-2.059 15.523-5.285 22.389-9.487 8.36-5.116 8.36-17.094 0-22.21z" fill="#fce3a0"/><path d="m500.681 467.736c-4.182-2.559-8.767-4.525-13.638-5.778-1.254-4.871-3.219-9.456-5.778-13.638-3.116-5.092-10.413-5.092-13.529 0-2.56 4.182-4.525 8.768-5.779 13.638-4.87 1.254-9.455 3.219-13.638 5.778-5.092 3.116-5.092 10.412 0 13.529 4.182 2.559 8.767 4.525 13.638 5.779 1.254 4.87 3.219 9.456 5.778 13.638 3.116 5.092 10.412 5.092 13.529 0 2.559-4.182 4.524-8.767 5.778-13.638 4.87-1.254 9.456-3.219 13.638-5.779 5.093-3.117 5.093-10.413.001-13.529z" fill="#fce3a0"/><g><path d="m256.065 287.715c24.3 0 44.379-21.523 44.464-48.699.042-13.383-4.951-22.731-14.841-27.785-7.741-3.956-17.391-4.792-29.5-4.83-15.521-.047-44.441-.139-44.544 32.337-.084 26.929 19.784 48.9 44.289 48.977zm-29.419-48.93c.043-13.813 6.032-17.482 29.497-17.384 23.043.072 29.431 3.499 29.387 17.568-.058 18.484-13.193 33.833-29.548 33.746-16.235-.05-29.395-15.272-29.336-33.93z"/><path d="m136.839 234.333c4.131 0 7.486-3.343 7.5-7.477.024-7.823 6.339-14.27 14.354-14.264 7.908.024 14.289 6.444 14.264 14.354-.013 4.142 3.334 7.51 7.477 7.523h.024c4.131 0 7.487-3.343 7.5-7.477.05-16.161-13.057-29.351-29.217-29.401-.032 0-.063 0-.096 0-16.157 0-29.256 13.05-29.306 29.217-.013 4.142 3.334 7.51 7.477 7.523.008.002.015.002.023.002z"/><path d="m331.792 234.944c4.131 0 7.486-3.342 7.499-7.476.024-7.875 6.439-14.265 14.309-14.265h.046c7.89.025 14.289 6.464 14.265 14.354-.013 4.142 3.335 7.51 7.477 7.523h.024c4.131 0 7.486-3.343 7.499-7.477.05-16.16-13.058-29.349-29.218-29.4-.031 0-.062 0-.093 0-16.118 0-29.257 13.088-29.309 29.217-.013 4.142 3.334 7.511 7.477 7.524z"/><path d="m412.069 439.64c-42.226 35.932-96.714 57.36-156.069 57.36-49.7 0-96.855-14.782-137.228-42.862 3.503-1.567 6.909-3.355 10.194-5.365 13.153-8.049 13.126-26.972 0-35.004-6.356-3.89-13.144-6.962-20.232-9.161-2.198-7.088-5.271-13.876-9.161-20.233-8.049-13.152-26.971-13.127-35.004 0-2.077 3.393-3.913 6.914-5.515 10.534-28.858-40.73-44.054-88.463-44.054-138.909 0-49.5 14.9-97.07 43.08-137.55 2.332-3.323 1.595-8.046-1.87-10.44-3.436-2.399-8.095-1.493-10.43 1.86l-.01.01c-29.853 42.89-45.77 93.553-45.77 146.12 0 55.161 17.518 107.55 49.138 150.823-4.834 1.904-9.506 4.219-13.963 6.946-6.17 3.776-9.854 10.319-9.854 17.501s3.684 13.726 9.854 17.502c6.356 3.891 13.145 6.963 20.233 9.162 2.199 7.088 5.271 13.877 9.16 20.231 8.05 13.154 26.971 13.126 35.005 0 2.779-4.541 5.133-9.307 7.057-14.242 42.594 30.673 94.333 48.077 149.35 48.077h.04c61.627 0 119.811-21.853 165.77-60.93 3.149-2.68 3.529-7.42.85-10.57-2.736-3.215-7.492-3.482-10.571-.86zm-311.024 4.889c-3.168.887-5.003 2.968-5.645 5.463-1.847 7.169-4.748 14.015-8.621 20.344-2.191 3.58-7.226 3.579-9.416 0-3.874-6.33-6.774-13.174-8.62-20.344-.681-2.646-2.748-4.712-5.394-5.393-7.168-1.845-14.013-4.746-20.344-8.621-3.58-2.191-3.579-7.226 0-9.416 6.333-3.875 13.177-6.775 20.344-8.62 2.815-.725 4.746-2.984 5.374-5.32.01-.036.02-.072.028-.104 1.848-7.161 4.746-13.996 8.613-20.315 2.191-3.579 7.226-3.578 9.416 0 3.875 6.331 6.774 13.176 8.62 20.345.681 2.646 2.748 4.712 5.394 5.393 7.168 1.845 14.013 4.745 20.343 8.62 3.581 2.192 3.578 7.226 0 9.416-6.243 3.822-13 6.698-20.092 8.552z"/><path d="m450.846 89.991c.633-1.452 1.209-2.927 1.719-4.422 4.024-1.367 7.889-3.178 11.531-5.407 9.882-6.047 9.863-20.289 0-26.323-3.642-2.229-7.505-4.04-11.528-5.406-3.351-9.871-8.15-18.934-18.568-18.933-5.404 0-10.324 2.769-13.159 7.403-2.229 3.642-4.041 7.506-5.408 11.532-2.096.714-4.147 1.563-6.154 2.518-29.935-22.427-64.564-38.138-101.689-45.753-16.87-3.454-33.764-5.2-51.59-5.2-18.629 0-37.267 2.015-55.32 5.99-53.642 11.847-100.747 40.379-135.78 79.66-2.75 3.09-2.48 7.84.61 10.59 3.062 2.748 7.817 2.485 10.59-.6 45.72-51.25 111.29-80.64 179.9-80.64 132.53 0 241 107.271 241 241 0 60.8-22.72 118.87-63.95 163.51-2.84 3.069-2.61 7.796.42 10.6 3.095 2.85 7.82 2.574 10.6-.42 43.81-47.41 67.93-109.09 67.93-173.69v-.01c0-60.324-20.991-118.899-61.154-165.999zm-11.476-12.591c-5.002-5.14-10.064-9.983-16.522-15.538 7.446-2.012 4.199-6.371 10.785-17.129.197-.319.541-.316.733.001 6.313 10.314 3.651 15.275 10.307 16.987 4.083 1.051 7.983 2.703 11.593 4.912.317.195.319.539-.001.735-10.15 6.211-14.995 3.68-16.895 10.032z"/><path d="m504.595 461.338c-3.641-2.229-7.504-4.039-11.527-5.405-1.366-4.024-3.177-7.888-5.405-11.529-6.047-9.879-20.289-9.864-26.322-.001-2.229 3.641-4.04 7.504-5.407 11.53-9.869 3.352-18.934 8.148-18.934 18.567 0 5.404 2.768 10.325 7.404 13.162 3.642 2.229 7.505 4.04 11.528 5.406 3.352 9.869 8.148 18.931 18.566 18.932 5.405 0 10.325-2.767 13.163-7.404 2.228-3.641 4.039-7.504 5.405-11.528 4.023-1.367 7.887-3.178 11.528-5.406 9.885-6.049 9.863-20.289.001-26.324zm-7.829 13.53c-10.313 6.311-15.274 3.654-16.985 10.306-1.052 4.085-2.705 7.985-4.913 11.593-.194.319-.538.319-.734-.001-6.302-10.293-3.653-15.271-10.306-16.985-4.084-1.052-7.984-2.705-11.593-4.913-.318-.195-.32-.539-.001-.735 3.61-2.209 7.511-3.862 11.593-4.912 6.61-1.7 4.02-6.716 10.308-16.988.197-.319.541-.316.733.001 6.313 10.314 3.651 15.275 10.307 16.987 4.083 1.051 7.983 2.703 11.592 4.912h.001c.315.195.318.539-.002.735z"/></g></g></svg>